<svg width="60" height="60" viewBox="0 0 60 60" fill="none" xmlns="http://www.w3.org/2000/svg">
<path fill-rule="evenodd" clip-rule="evenodd" d="M49.268 16.1353C44.922 10.2123 37.9105 6.36768 30.0001 6.36768C22.0897 6.36768 15.0781 10.2139 10.7322 16.1353H49.268Z" fill="#ED1C24"/>
<path fill-rule="evenodd" clip-rule="evenodd" d="M30.0001 54.1245C43.1908 54.1245 53.8842 43.4336 53.8842 30.246C53.8842 25.2742 52.363 20.6575 49.7622 16.8345H10.2365C7.63573 20.6575 6.1145 25.2742 6.1145 30.246C6.11605 43.4336 16.8095 54.1245 30.0001 54.1245Z" fill="#2E3192"/>
<path fill-rule="evenodd" clip-rule="evenodd" d="M30.0975 8.68994L30.7338 10.6601L32.8048 10.6555L31.126 11.8691L31.77 13.8378L30.0975 12.6164L28.4249 13.8378L29.0689 11.8691L27.3901 10.6555L29.4612 10.6601L30.0975 8.68994Z" fill="#FFF200"/>
<path fill-rule="evenodd" clip-rule="evenodd" d="M30.0481 20.1141C28.428 20.1418 28.3014 21.4435 28.9438 23.1635C29.3222 25.3051 29.2265 29.8338 29.2604 33.2121C29.5214 33.2121 30.5809 33.2121 30.8419 33.2121C30.9253 29.2563 30.9037 24.0498 31.211 23.2562C32.0095 20.8289 31.3593 20.0971 30.0481 20.1141Z" fill="white"/>
<path fill-rule="evenodd" clip-rule="evenodd" d="M21.2017 32.9916C22.1917 32.8294 22.7292 32.4511 23.0087 31.9493C23.0875 31.1372 23.4241 30.2879 23.9353 29.4125C24.1114 28.73 24.601 28.2328 25.3021 27.8607C26.306 27.5442 27.3098 27.2277 28.3137 26.9111C28.3214 27.4438 28.3291 27.9765 28.3369 28.5092C26.8218 30.0054 25.1261 31.2375 23.1477 32.0528C22.8573 32.3539 22.6149 32.655 22.4187 32.956C22.3014 33.2695 22.2473 33.3729 22.1577 33.6848C22.1407 33.8053 22.0141 33.847 21.9554 33.7188C21.9199 33.5104 21.9431 33.3776 21.9091 33.1691C21.7284 33.1846 21.4597 33.1768 21.2774 33.1923C21.1338 33.2278 21.0967 33.0332 21.2017 32.9916Z" fill="white"/>
<path fill-rule="evenodd" clip-rule="evenodd" d="M25.2557 29.7226C25.4595 29.7226 25.6263 29.5574 25.6263 29.352C25.6263 29.1467 25.4595 28.9814 25.2557 28.9814C25.0503 28.9814 24.885 29.1467 24.885 29.352C24.885 29.5558 25.0503 29.7226 25.2557 29.7226Z" fill="#2E3192"/>
<path fill-rule="evenodd" clip-rule="evenodd" d="M31.6619 26.3291C31.6696 26.885 31.6773 27.4408 31.6851 27.9967C33.6542 28.2622 34.7414 29.1902 34.8588 30.8454C34.8665 34.1589 28.7739 33.6324 26.9129 35.0606C25.177 36.194 24.8573 37.6176 25.2218 39.1832C26.0187 40.9465 27.3268 41.6182 28.6503 41.8698C28.6349 41.3217 28.6194 40.7736 28.604 40.2254C26.7275 39.123 26.6565 37.4493 28.2102 36.6356C29.7376 35.9052 31.7005 35.6983 33.4688 35.1301C35.8735 34.2052 37.18 32.3694 36.6194 29.5947C36.1267 27.6956 34.1484 26.4619 31.6619 26.3291Z" fill="white"/>
<path fill-rule="evenodd" clip-rule="evenodd" d="M29.2371 36.9072L30.5699 36.6416L30.5344 44.561L29.3761 45.0242L29.2371 36.9072Z" fill="white"/>
<path fill-rule="evenodd" clip-rule="evenodd" d="M30.4309 47.3755L29.4456 47.9669L29.5846 54.265H30.4185L30.4309 47.3755Z" fill="white"/>
<path fill-rule="evenodd" clip-rule="evenodd" d="M31.3575 41.2148C31.3653 41.6781 31.373 42.1413 31.3807 42.6045C32.1436 43.0538 32.5838 43.6174 32.2039 44.4697C31.7189 45.3683 28.2703 45.7358 27.8487 46.9587C27.4996 48.2557 27.7915 49.1404 28.834 49.5418C28.8309 49.0246 28.8263 48.5073 28.8232 47.9901C28.9653 47.4003 29.3977 47.0359 30.0278 46.9015C31.912 46.6545 33.7653 45.8825 34.0819 44.3431C34.2795 42.3621 33.0317 41.6147 31.3575 41.2148Z" fill="white"/>
<path fill-rule="evenodd" clip-rule="evenodd" d="M31.1614 49.6592C31.1645 49.9109 31.1691 50.161 31.1722 50.4127C31.9521 50.794 32.3274 51.3437 32.5513 51.9413C32.6008 52.125 32.9374 52.1219 32.9343 51.7915C32.8216 50.6613 32.1065 50.0467 31.1614 49.6592Z" fill="white"/>
<path d="M4.79708 46.5202C2.3384 42.7142 0.752306 38.326 0.211767 33.8282C-0.328772 29.3305 0.170068 24.6906 1.65578 20.4106C3.50133 15.096 6.79399 10.4191 11.1754 6.88941L11.37 7.13028C7.03182 10.6244 3.77469 15.2519 1.94767 20.5125C-1.07008 29.2054 0.0635047 38.624 5.05654 46.3535L4.79708 46.5202ZM55.4425 46.1404L55.1799 45.9767C58.1313 41.2551 59.6911 35.8154 59.6911 30.2461C59.6911 21.0452 55.5321 12.5174 48.2796 6.85236L48.4695 6.6084C52.0402 9.39693 54.9776 13.0239 56.9637 17.0955C58.9498 21.1671 60 25.7143 60 30.2445C60.0015 35.8741 58.4247 41.3693 55.4425 46.1404ZM5.78241 45.4811C3.48125 41.8248 2.01871 37.6219 1.55385 33.3264C1.08898 29.0309 1.61717 24.6119 3.0828 20.548C4.9021 15.499 8.09437 11.0784 12.3137 7.76179L12.5052 8.00421C8.3322 11.2853 5.17391 15.658 3.37315 20.653C0.398639 28.9028 1.37161 37.8921 6.04495 45.3159L5.78241 45.4811ZM54.2641 45.4039L54.0016 45.2402C56.8155 40.7394 58.3027 35.5545 58.3027 30.2461C58.3027 21.4759 54.3382 13.3481 47.4255 7.94862L47.6155 7.70467C51.0209 10.365 53.8224 13.8237 55.7158 17.7054C57.6108 21.5887 58.6116 25.9243 58.6116 30.2445C58.6116 35.6131 57.1073 40.8536 54.2641 45.4039ZM6.70904 44.9422C4.4882 41.4249 3.07662 37.3811 2.62257 33.2477C2.16852 29.1143 2.67199 24.8589 4.07739 20.9448C5.82256 16.0826 8.88973 11.8226 12.9453 8.62491L13.1368 8.86733C9.12602 12.0295 6.09283 16.2416 4.36774 21.0498C1.51678 28.9923 2.46659 37.6405 6.97005 44.777L6.70904 44.9422ZM53.3545 44.8372L53.0919 44.6736C55.7992 40.3425 57.2294 35.3537 57.2294 30.2461C57.2294 21.8079 53.4147 13.9874 46.763 8.79167L46.9529 8.54771C50.2301 11.1077 52.9267 14.4367 54.7506 18.1748C56.5745 21.9129 57.5382 26.0864 57.5382 30.2445C57.5398 35.4109 56.0927 40.4568 53.3545 44.8372ZM7.78703 44.2196C5.67584 40.866 4.33531 37.0105 3.90905 33.0701C3.4828 29.1297 3.96774 25.0766 5.31137 21.3493C6.98086 16.7188 9.90903 12.6641 13.7777 9.62082L13.9693 9.86323C10.1453 12.8695 7.25113 16.8778 5.60171 21.4528C2.87585 29.0155 3.76851 37.2529 8.04958 44.0544L7.78703 44.2196ZM52.2549 44.1501L51.9923 43.9865C54.5699 39.8623 55.9336 35.1098 55.9336 30.2461C55.9336 22.2094 52.3012 14.7625 45.9661 9.81382L46.156 9.56986C49.2788 12.0094 51.8487 15.1824 53.5861 18.743C55.3236 22.3051 56.2425 26.2825 56.2425 30.2445C56.2425 35.1685 54.8633 39.9751 52.2549 44.1501Z" fill="#2E3192"/>
<path d="M17.5214 5.45643L18.2612 7.04061L18.9237 6.7318C19.2789 6.56659 19.4967 6.36741 19.5755 6.13426C19.6388 5.95052 19.6187 5.75134 19.5168 5.53208C19.4241 5.3329 19.2758 5.18776 19.0735 5.09512C18.8141 4.97314 18.5268 4.98704 18.2118 5.13372L17.5214 5.45643ZM16.7492 3.80276L17.4087 5.21556L17.9894 4.94535C18.2411 4.828 18.4187 4.68441 18.5206 4.51611C18.6426 4.32001 18.6488 4.10231 18.5376 3.86452C18.4403 3.65762 18.3013 3.52329 18.1176 3.45844C17.8751 3.37506 17.5631 3.42293 17.1801 3.60204L16.7492 3.80276ZM17.5477 7.66749L15.8118 3.94636L17.6357 3.09559C18.0774 2.89024 18.4666 2.84855 18.8033 2.97053C19.0612 3.06471 19.2419 3.2222 19.3453 3.44455C19.4473 3.66225 19.4612 3.87688 19.3886 4.08532C19.316 4.29377 19.1755 4.47905 18.9654 4.64272C19.2851 4.56397 19.5647 4.56552 19.8025 4.64735C20.0403 4.72918 20.2148 4.88977 20.326 5.126C20.4619 5.41628 20.4635 5.70502 20.3338 5.98912C20.1824 6.31182 19.8751 6.58049 19.4102 6.79665L17.5477 7.66749Z" fill="#2E3192"/>
<path d="M32.1267 2.02562L33.597 0.362689L34.1854 0.382761L32.3754 2.42707L32.2951 4.61034L31.2974 4.57637L31.3731 2.52743L29.6572 0.231445L30.8341 0.270046L32.1267 2.02562Z" fill="#2E3192"/>
<path d="M38.3353 5.72995L37.4333 5.47056L38.5252 1.65061L37.5785 1.37731L37.6542 1.11328L40.4635 1.92081L40.3878 2.18639L39.4272 1.91L38.3353 5.72995Z" fill="#2E3192"/>
<path d="M41.0102 6.58707L43.126 7.7312L43.004 7.97979L40.0774 6.39715L41.9662 2.55713L44.8527 4.11815L44.7307 4.36674L42.655 3.24423L41.926 4.7265L43.8951 5.79189L43.7731 6.04048L41.804 4.97509L41.0102 6.58707Z" fill="#2E3192"/>
<path d="M45.4287 3.28711L45.9028 3.62217L44.5514 3.95259L44.292 3.77039L45.4287 3.28711Z" fill="#2E3192"/>
<path d="M42.6069 2.83338L43.7127 2.23584L44.1621 2.47208L44.3197 3.7351L44.0401 3.58687L43.8085 2.61259L42.8865 2.98007L42.6069 2.83338Z" fill="#2E3192"/>
<path d="M22.4481 1.20108L22.2659 1.26129L22.6303 0.138778L22.9207 0.0415039L23.8859 0.719336L23.7037 0.779554L22.8914 0.419793L22.4481 1.20108ZM24.6859 5.75753C24.6211 5.77915 24.5562 5.77297 24.4898 5.739C24.4234 5.70503 24.3786 5.65717 24.357 5.59232C24.3354 5.52747 24.3415 5.46262 24.3755 5.39623C24.4079 5.32983 24.4574 5.28506 24.5222 5.26344C24.5902 5.24028 24.6566 5.24491 24.7215 5.27734C24.7863 5.30976 24.8296 5.35917 24.8527 5.42711C24.8744 5.49196 24.8682 5.55681 24.8342 5.6232C24.7987 5.69114 24.7493 5.73592 24.6859 5.75753Z" fill="#2E3192"/>
<path d="M24.6087 5.80867C24.5623 5.80867 24.5175 5.79786 24.4712 5.7747C24.3955 5.7361 24.3446 5.68052 24.3198 5.6064C24.2951 5.53229 24.3013 5.45663 24.3399 5.38097C24.377 5.30531 24.4341 5.25436 24.5083 5.22966C24.5855 5.20341 24.6627 5.20958 24.7368 5.24664C24.811 5.2837 24.8604 5.34083 24.8866 5.41957C24.9114 5.49369 24.9052 5.56934 24.8666 5.645C24.8295 5.72066 24.7724 5.77161 24.6982 5.79632C24.6689 5.80404 24.6395 5.80867 24.6087 5.80867ZM24.604 5.28833C24.5809 5.28833 24.5577 5.29296 24.533 5.30068C24.4789 5.31921 24.4372 5.35627 24.4094 5.4134C24.3801 5.47053 24.3754 5.52611 24.394 5.58015C24.4125 5.63419 24.4496 5.67588 24.5067 5.70368C24.5654 5.73301 24.6195 5.73764 24.6735 5.71912C24.7291 5.70059 24.7693 5.66353 24.7971 5.6064C24.8264 5.54927 24.831 5.49369 24.8125 5.43964C24.7924 5.38097 24.7569 5.33928 24.7013 5.31149C24.6689 5.29605 24.6364 5.28833 24.604 5.28833ZM22.2056 1.32324L22.5994 0.109627L22.9253 0L23.9693 0.733418L23.7005 0.822972L22.9067 0.470932L22.4743 1.23214L22.2056 1.32324ZM22.6612 0.169844L22.326 1.20126L22.4218 1.16884L22.8743 0.372113L23.7036 0.741138L23.7994 0.708713L22.9129 0.0849221L22.6612 0.169844Z" fill="#2E3192"/>
<path d="M21.2727 3.63297C21.1322 2.99991 21.2542 2.43634 21.6403 1.94225C22.0264 1.44661 22.5839 1.127 23.3128 0.978768C24.0047 0.838261 24.6086 0.923183 25.1244 1.23353C25.6403 1.54389 25.9708 2.02254 26.1159 2.67258C26.2518 3.28093 26.1576 3.83524 25.8318 4.33242C25.4719 4.88055 24.902 5.23414 24.1252 5.39008C23.4657 5.52287 22.8742 5.45185 22.3538 5.17392C21.7978 4.87901 21.4519 4.42969 21.3175 3.82752L21.2727 3.63297ZM23.353 1.2675C22.7862 1.38176 22.4063 1.68131 22.2132 2.16459C22.0557 2.56141 22.0387 3.03388 22.1607 3.58356C22.2735 4.08537 22.4835 4.47601 22.7908 4.75394C23.1584 5.08745 23.6063 5.20017 24.136 5.09363C24.6518 4.99018 24.9962 4.67056 25.1692 4.13478C25.3051 3.71172 25.3237 3.27321 25.2217 2.81772C25.1136 2.33289 24.9237 1.94842 24.6518 1.66432C24.3028 1.2953 23.8688 1.16251 23.353 1.2675Z" fill="#2E3192"/>
<path d="M7.57861 49.6994L10.2072 47.2305L10.7168 47.774L9.65274 50.1919L12.0898 49.2331L12.5701 49.7442L9.94308 52.2131L9.47822 51.719L11.594 49.7303L8.58865 50.9192L9.9261 47.9068L7.77784 49.9109L7.57861 49.6994Z" fill="#2E3192"/>
<path d="M11.1801 53.3358L10.655 52.905L12.9485 50.1211L13.472 50.5534L11.1801 53.3358Z" fill="#2E3192"/>
<path d="M12.0589 53.8328L11.8164 53.6599L14.0666 50.771L14.5685 51.1308L14.601 54.2513L16.1577 52.2703L16.4002 52.4432L14.15 55.3305L13.8983 55.1514L13.8658 51.5307L12.0589 53.8328Z" fill="#2E3192"/>
<path d="M15.6001 56.2201L15.0164 55.8726L16.8635 52.7769L17.4472 53.1243L15.6001 56.2201Z" fill="#2E3192"/>
<path d="M16.564 56.271L16.8883 56.2123C16.9161 56.3992 16.9686 56.5474 17.0443 56.6586C17.1199 56.7697 17.2435 56.8608 17.4118 56.9319C17.5725 56.9998 17.7423 57.0075 17.9199 56.9535C18.0976 56.901 18.2257 56.7914 18.303 56.6246C18.425 56.3637 18.3786 56.1058 18.164 55.8526C17.9508 55.6287 17.7408 55.4064 17.5323 55.184C17.3269 54.8984 17.3037 54.5896 17.4597 54.2576C17.5864 53.9905 17.7979 53.8067 18.0976 53.7079C18.3972 53.6091 18.7076 53.6276 19.0304 53.7635C19.2481 53.8561 19.4288 53.9951 19.5725 54.1835C19.7161 54.3719 19.7902 54.5741 19.7948 54.7918L19.5076 54.8289C19.503 54.656 19.4674 54.5093 19.3995 54.3873C19.3176 54.2422 19.191 54.1341 19.018 54.0615C18.842 53.9874 18.6782 53.9843 18.5238 54.0507C18.3694 54.1186 18.2535 54.2344 18.1763 54.4012C18.079 54.6081 18.1393 54.8335 18.3586 55.0806C18.564 55.3091 18.7725 55.5376 18.9825 55.7646C19.1786 56.0672 19.1987 56.3868 19.0381 56.7265C18.9006 57.0183 18.6736 57.2098 18.3555 57.304C18.0373 57.3966 17.7238 57.3781 17.4165 57.2484C17.1632 57.1419 16.9655 57.0106 16.825 56.8593C16.6829 56.708 16.5964 56.5119 16.564 56.271Z" fill="#2E3192"/>
<path d="M20.2812 58.2503L19.6001 58.0295L20.7646 54.8411L20.0511 54.6095L20.1314 54.3887L22.2487 55.0758L22.1684 55.2966L21.4441 55.0619L20.2812 58.2503Z" fill="#2E3192"/>
<path d="M22.1745 58.8463L21.478 58.6502L22.5915 55.1978L24.1884 55.6471C24.5128 55.7382 24.7383 55.9096 24.868 56.1643C24.99 56.4037 25.0039 56.6677 24.9112 56.9549C24.8294 57.2065 24.6749 57.3764 24.4479 57.4629C24.2487 57.5385 23.9923 57.5524 23.6757 57.5015L24.1359 59.3914L23.3699 59.1814L22.9359 57.1309L22.9823 57.1432C23.302 57.2328 23.5661 57.2436 23.7745 57.1741C24.0016 57.0985 24.156 56.9348 24.2379 56.6831C24.3089 56.4623 24.3043 56.2693 24.2255 56.1041C24.1282 55.9034 23.9228 55.7567 23.6062 55.6687L23.2294 55.5621L22.1745 58.8463Z" fill="#2E3192"/>
<path d="M26.7384 57.5848L27.7963 56.2183L28.1963 56.2477L26.8928 57.9276L26.7616 59.7588L26.0851 59.7109L26.2087 57.9909L25.1199 56.0269L25.9199 56.084L26.7384 57.5848Z" fill="#2E3192"/>
<path d="M30.0943 58.1128C30.1036 58.5621 30.1777 58.9265 30.3167 59.2059C30.5066 59.5858 30.7985 59.7726 31.1924 59.7664C31.5862 59.7602 31.8704 59.5672 32.0449 59.1859C32.1808 58.891 32.2441 58.5235 32.2348 58.0819C32.2256 57.6372 32.1499 57.2728 32.0063 56.9887C31.8132 56.6089 31.5182 56.422 31.1244 56.4282C30.7352 56.4344 30.4526 56.6274 30.2796 57.0088C30.1453 57.2991 30.085 57.6681 30.0943 58.1128ZM29.3638 58.1236C29.353 57.5816 29.5121 57.1261 29.841 56.7586C30.17 56.3896 30.5962 56.2028 31.1182 56.1951C31.6356 56.1873 32.0711 56.3634 32.4217 56.7247C32.7723 57.0844 32.9545 57.5337 32.9653 58.0711C32.9761 58.6053 32.8155 59.0577 32.4819 59.4298C32.1483 59.8019 31.7205 59.9918 31.1985 59.9996C30.6796 60.0073 30.2472 59.8313 29.9012 59.47C29.5538 59.1102 29.3746 58.6609 29.3638 58.1236Z" fill="#2E3192"/>
<path d="M34.1701 59.6958L33.4905 59.7143L33.3855 56.1105L35.455 56.0503L35.4627 56.2834L34.0712 56.3251L34.1114 57.7148L35.3809 57.6777L35.387 57.9124L34.1191 57.9495L34.1701 59.6958Z" fill="#2E3192"/>
<path d="M38.5006 58.8171L37.8442 58.9931L36.9114 55.5098L37.5677 55.3338L37.977 56.8608L39.4056 56.4779L38.9963 54.9508L39.6527 54.7764L40.587 58.2582L39.9307 58.4342L39.4813 56.7574L38.0511 57.1403L38.5006 58.8171Z" fill="#2E3192"/>
<path d="M42.224 57.2035L43.8394 56.4839L43.9352 56.697L41.6973 57.6929L40.2317 54.3995L42.4386 53.4175L42.5328 53.6306L40.9467 54.3362L41.512 55.6069L43.0178 54.9368L43.112 55.1499L41.6077 55.82L42.224 57.2035Z" fill="#2E3192"/>
<path d="M45.0409 54.5693L43.9552 53.6459L44.1189 55.0603L45.0409 54.5693ZM46.6362 55.0587L46.0169 55.3876L45.2386 54.7298L44.1389 55.3135L44.2733 56.3156L43.983 56.4669L43.5413 52.5049L46.6362 55.0587Z" fill="#2E3192"/>
<path d="M48.7739 53.5748L47.0318 54.793L44.9639 51.8393L45.5198 51.4502L47.4225 54.1662L48.6071 53.337L48.7739 53.5748Z" fill="#2E3192"/>
<path d="M49.7003 52.6317L49.1567 53.0687L46.8864 50.4855L46.3135 50.9441L46.1575 50.765L47.8532 49.4062L48.0107 49.5854L47.4301 50.0501L49.7003 52.6317Z" fill="#2E3192"/>
<path d="M51.2819 51.2838L50.7799 51.8026L48.0232 49.1406L48.5236 48.6218L49.7328 49.7876L50.8263 48.6558L49.617 47.4901L50.1189 46.9697L52.8757 49.6332L52.3753 50.152L51.0471 48.8704L49.9537 50.0022L51.2819 51.2838Z" fill="#2E3192"/>
</svg>
