<svg width="100" height="100" viewBox="0 0 100 100" fill="none" xmlns="http://www.w3.org/2000/svg">
  <path fill-rule="evenodd" clip-rule="evenodd"
        d="M82.1133 26.892C74.8701 17.0205 63.1841 10.6127 50.0001 10.6127C36.8161 10.6127 25.1302 17.023 17.887 26.892H82.1133Z"
        fill="#ED1C24"/>
  <path fill-rule="evenodd" clip-rule="evenodd"
        d="M50.0001 90.2078C71.9846 90.2078 89.807 72.3896 89.807 50.4103C89.807 42.1239 87.2716 34.4295 82.937 28.0577H17.0607C12.7261 34.4295 10.1907 42.1239 10.1907 50.4103C10.1933 72.3896 28.0156 90.2078 50.0001 90.2078Z"
        fill="#2E3192"/>
  <path fill-rule="evenodd" clip-rule="evenodd"
        d="M50.1624 14.4831L51.2228 17.7667L54.6746 17.759L51.8766 19.7817L52.95 23.0628L50.1624 21.0272L47.3747 23.0628L48.4481 19.7817L45.6501 17.759L49.1019 17.7667L50.1624 14.4831Z"
        fill="#FFF200"/>
  <path fill-rule="evenodd" clip-rule="evenodd"
        d="M50.08 33.5236C47.3799 33.57 47.1688 35.7393 48.2396 38.6061C48.8702 42.1754 48.7106 49.7232 48.7673 55.3538C49.2023 55.3538 50.968 55.3538 51.403 55.3538C51.542 48.7607 51.506 40.0832 52.0182 38.7605C53.349 34.7151 52.2653 33.4953 50.08 33.5236Z"
        fill="white"/>
  <path fill-rule="evenodd" clip-rule="evenodd"
        d="M35.3361 54.9857C36.9861 54.7155 37.8818 54.0851 38.3477 53.2487C38.479 51.8951 39.0401 50.4797 39.8921 49.0206C40.1856 47.8832 41.0015 47.0545 42.1701 46.4344C43.8432 45.9068 45.5163 45.3793 47.1894 44.8517C47.2023 45.7395 47.2151 46.6274 47.228 47.5152C44.7029 50.0088 41.8767 52.0624 38.5794 53.4211C38.0955 53.9229 37.6914 54.4247 37.3645 54.9266C37.1688 55.449 37.0787 55.6214 36.9294 56.1412C36.9011 56.3419 36.6901 56.4114 36.5923 56.1978C36.5331 55.8504 36.5717 55.6291 36.515 55.2817C36.2139 55.3074 35.766 55.2946 35.4623 55.3203C35.2229 55.3795 35.1611 55.0552 35.3361 54.9857Z"
        fill="white"/>
  <path fill-rule="evenodd" clip-rule="evenodd"
        d="M42.0928 49.5379C42.4326 49.5379 42.7105 49.2625 42.7105 48.9203C42.7105 48.578 42.4326 48.3026 42.0928 48.3026C41.7505 48.3026 41.475 48.578 41.475 48.9203C41.475 49.26 41.7505 49.5379 42.0928 49.5379Z"
        fill="#2E3192"/>
  <path fill-rule="evenodd" clip-rule="evenodd"
        d="M52.7698 43.8816C52.7826 44.808 52.7955 45.7344 52.8084 46.6608C56.0902 47.1035 57.9023 48.6501 58.0979 51.4087C58.1108 56.9313 47.9564 56.0537 44.8547 58.4341C41.9616 60.323 41.4287 62.6957 42.0362 65.3051C43.3644 68.2439 45.5446 69.3633 47.7505 69.7828C47.7247 68.8692 47.699 67.9557 47.6733 67.0421C44.5459 65.2047 44.4274 62.4152 47.0169 61.059C49.5626 59.8418 52.8341 59.4969 55.7813 58.5499C59.789 57.0085 61.9666 53.9487 61.0323 49.3243C60.2112 46.159 56.9139 44.1029 52.7698 43.8816Z"
        fill="white"/>
  <path fill-rule="evenodd" clip-rule="evenodd"
        d="M48.7286 61.5119L50.9499 61.0693L50.8907 74.2682L48.9602 75.0402L48.7286 61.5119Z" fill="white"/>
  <path fill-rule="evenodd" clip-rule="evenodd"
        d="M50.7183 78.9595L49.0761 79.9451L49.3078 90.442H50.6977L50.7183 78.9595Z" fill="white"/>
  <path fill-rule="evenodd" clip-rule="evenodd"
        d="M52.2627 68.6917C52.2756 69.4637 52.2884 70.2357 52.3013 71.0077C53.5728 71.7566 54.3064 72.6959 53.6732 74.1164C52.865 75.6141 47.1173 76.2266 46.4146 78.2647C45.8328 80.4263 46.3193 81.9009 48.0568 82.57C48.0516 81.7079 48.0439 80.8458 48.0388 79.9837C48.2756 79.0007 48.9963 78.3934 50.0465 78.1695C53.1867 77.7577 56.2755 76.471 56.8032 73.9054C57.1327 70.6037 55.0529 69.3582 52.2627 68.6917Z"
        fill="white"/>
  <path fill-rule="evenodd" clip-rule="evenodd"
        d="M51.9358 82.7656C51.9409 83.185 51.9487 83.6019 51.9538 84.0214C53.2537 84.657 53.8792 85.5731 54.2524 86.569C54.3348 86.8753 54.8959 86.8701 54.8907 86.3194C54.7028 84.4357 53.5111 83.4115 51.9358 82.7656Z"
        fill="white"/>
  <path
    d="M7.99513 77.5339C3.89734 71.1904 1.25384 63.8768 0.352944 56.3805C-0.547954 48.8842 0.283447 41.1512 2.75963 34.0177C5.83555 25.1601 11.3233 17.3653 18.6257 11.4825L18.9501 11.8839C11.7197 17.7075 6.29115 25.42 3.24611 34.1876C-1.78347 48.6758 0.105841 64.3735 8.42757 77.2559L7.99513 77.5339ZM92.4041 76.9008L91.9666 76.628C96.8855 68.7586 99.4852 59.6925 99.4852 50.4103C99.4852 35.0754 92.5534 20.8625 80.466 11.4207L80.7826 11.0141C86.7336 15.6617 91.6294 21.7066 94.9395 28.4926C98.2497 35.2787 100 42.8573 100 50.4077C100.003 59.7903 97.3745 68.949 92.4041 76.9008ZM9.63734 75.802C5.80209 69.7082 3.36452 62.7034 2.58975 55.5442C1.81497 48.385 2.69528 41.0199 5.138 34.2468C8.17017 25.8317 13.4906 18.4641 20.5228 12.9365L20.8419 13.3405C13.887 18.8089 8.62319 26.0968 5.62191 34.4217C0.664398 48.1714 2.28601 63.1537 10.0749 75.5266L9.63734 75.802ZM90.4402 75.6733L90.0026 75.4005C94.6924 67.8991 97.1712 59.2576 97.1712 50.4103C97.1712 35.7934 90.5637 22.247 79.0425 13.2478L79.3591 12.8412C85.0348 17.2752 89.704 23.0396 92.8597 29.5091C96.018 35.9812 97.686 43.2073 97.686 50.4077C97.686 59.3554 95.1789 68.0895 90.4402 75.6733ZM11.1817 74.9038C7.48034 69.0416 5.1277 62.3019 4.37095 55.4129C3.6142 48.524 4.45332 41.4317 6.79565 34.9081C9.70427 26.8045 14.8162 19.7045 21.5755 14.375L21.8947 14.779C15.21 20.0493 10.1547 27.0696 7.27956 35.0831C2.52797 48.3207 4.11098 62.7343 11.6167 74.6285L11.1817 74.9038ZM88.9241 74.7289L88.4865 74.4561C92.9987 67.2377 95.3823 58.9231 95.3823 50.4103C95.3823 36.3466 89.0245 23.3124 77.9383 14.6529L78.2549 14.2463C83.7169 18.513 88.2111 24.0613 91.251 30.2914C94.2909 36.5216 95.8971 43.4775 95.8971 50.4077C95.8996 59.0183 93.4878 67.4281 88.9241 74.7289ZM12.9784 73.6995C9.45974 68.1101 7.22551 61.6843 6.51509 55.117C5.80467 48.5497 6.6129 41.7945 8.85227 35.5823C11.6348 27.8647 16.5151 21.107 22.9629 16.0348L23.2821 16.4389C16.9089 21.4493 12.0852 28.1298 9.33619 35.7548C4.79309 48.3593 6.28085 62.0883 13.416 73.4241L12.9784 73.6995ZM87.0914 73.5837L86.6538 73.3109C90.9498 66.4374 93.2227 58.5165 93.2227 50.4103C93.2227 37.0157 87.1686 24.6042 76.6101 16.3565L76.9267 15.9499C82.1313 20.0159 86.4145 25.3042 89.3102 31.2385C92.2059 37.1753 93.7375 43.8043 93.7375 50.4077C93.7375 58.6142 91.4389 66.6252 87.0914 73.5837Z"
    fill="#2E3192"/>
  <path
    d="M29.2023 9.09439L30.4352 11.7347L31.5394 11.22C32.1315 10.9447 32.4944 10.6127 32.6257 10.2241C32.7312 9.91788 32.6977 9.58591 32.5279 9.22049C32.3734 8.88852 32.1263 8.64662 31.7891 8.49222C31.3567 8.28892 30.8779 8.31208 30.3528 8.55655L29.2023 9.09439ZM27.9153 6.33828L29.0144 8.69294L29.9822 8.2426C30.4017 8.04702 30.6977 7.80769 30.8676 7.52719C31.071 7.20037 31.0813 6.83752 30.8959 6.44122C30.7338 6.09638 30.5021 5.8725 30.1958 5.76441C29.7917 5.62545 29.2718 5.70523 28.6334 6.00374L27.9153 6.33828ZM29.246 12.7795L26.3528 6.57761L29.3927 5.15967C30.1289 4.8174 30.7775 4.74792 31.3387 4.95122C31.7685 5.1082 32.0697 5.37069 32.2421 5.74125C32.412 6.1041 32.4352 6.46181 32.3142 6.80921C32.1932 7.15662 31.959 7.46543 31.6089 7.73821C32.1418 7.60697 32.6076 7.60954 33.004 7.74593C33.4004 7.88232 33.6913 8.14995 33.8766 8.54368C34.1031 9.02748 34.1057 9.50871 33.8895 9.98221C33.6372 10.5201 33.125 10.9678 32.3502 11.3281L29.246 12.7795Z"
    fill="#2E3192"/>
  <path
    d="M53.5445 3.3763L55.995 0.604755L56.9757 0.63821L53.9589 4.04539L53.8251 7.68417L52.1623 7.62755L52.2884 4.21266L49.4287 0.386017L51.3901 0.450352L53.5445 3.3763Z"
    fill="#2E3192"/>
  <path
    d="M63.892 9.54986L62.3888 9.11753L64.2086 2.75095L62.6307 2.29546L62.7569 1.85541L67.439 3.20129L67.3128 3.64392L65.7118 3.18328L63.892 9.54986Z"
    fill="#2E3192"/>
  <path
    d="M68.3502 10.9781L71.8765 12.885L71.6732 13.2993L66.7955 10.6616L69.9435 4.26154L74.7543 6.86324L74.5509 7.27756L71.0915 5.4067L69.8765 7.87716L73.1584 9.6528L72.955 10.0671L69.6732 8.29148L68.3502 10.9781Z"
    fill="#2E3192"/>
  <path d="M75.7143 5.47876L76.5046 6.03719L74.2523 6.58789L73.8199 6.28423L75.7143 5.47876Z" fill="#2E3192"/>
  <path
    d="M71.0117 4.72219L72.8547 3.72629L73.6037 4.12002L73.8663 6.22506L73.4004 5.97801L73.0143 4.3542L71.4776 4.96666L71.0117 4.72219Z"
    fill="#2E3192"/>
  <path
    d="M37.4133 2.00211L37.1096 2.10247L37.717 0.231612L38.2009 0.0694885L39.8097 1.19921L39.5059 1.29957L38.152 0.699971L37.4133 2.00211ZM41.143 9.5962C41.0349 9.63223 40.9268 9.62193 40.8161 9.56532C40.7054 9.50871 40.6308 9.42893 40.5947 9.32085C40.5587 9.21277 40.569 9.10468 40.6256 8.99403C40.6797 8.88337 40.7621 8.80874 40.8702 8.77271C40.9834 8.73411 41.0941 8.74183 41.2022 8.79588C41.3103 8.84992 41.3824 8.93227 41.421 9.04549C41.457 9.15358 41.4467 9.26166 41.3901 9.37232C41.3309 9.48554 41.2485 9.56017 41.143 9.5962Z"
    fill="#2E3192"/>
  <path
    d="M41.0144 9.68112C40.9371 9.68112 40.8625 9.6631 40.7853 9.6245C40.6591 9.56017 40.5742 9.46753 40.533 9.344C40.4918 9.22048 40.5021 9.09438 40.5665 8.96829C40.6283 8.84219 40.7235 8.75727 40.847 8.71609C40.9757 8.67235 41.1044 8.68264 41.228 8.7444C41.3516 8.80616 41.4339 8.90138 41.4777 9.03262C41.5189 9.15614 41.5086 9.28224 41.4442 9.40834C41.3824 9.53443 41.2872 9.61936 41.1636 9.66053C41.1147 9.6734 41.0658 9.68112 41.0144 9.68112ZM41.0066 8.81388C40.968 8.81388 40.9294 8.8216 40.8882 8.83447C40.7981 8.86535 40.7286 8.92711 40.6823 9.02233C40.6334 9.11754 40.6257 9.21019 40.6566 9.30026C40.6875 9.39032 40.7492 9.45981 40.8445 9.50613C40.9423 9.55502 41.0324 9.56274 41.1225 9.53186C41.2151 9.50098 41.2821 9.43922 41.3284 9.344C41.3773 9.24879 41.385 9.15614 41.3541 9.06608C41.3207 8.96829 41.2615 8.89881 41.1688 8.85248C41.1147 8.82675 41.0607 8.81388 41.0066 8.81388ZM37.0092 2.2054L37.6656 0.182711L38.2087 0L39.9487 1.22236L39.5008 1.37162L38.1778 0.784886L37.4571 2.05357L37.0092 2.2054ZM37.7685 0.283074L37.21 2.0021L37.3696 1.94806L38.1238 0.620189L39.506 1.23523L39.6656 1.18119L38.1881 0.141537L37.7685 0.283074Z"
    fill="#2E3192"/>
  <path
    d="M35.4545 6.0552C35.2203 5.00011 35.4236 4.06082 36.0671 3.23733C36.7106 2.41127 37.6398 1.87858 38.8548 1.63153C40.0079 1.39736 41.0143 1.53889 41.8741 2.05615C42.7338 2.5734 43.2846 3.37115 43.5266 4.45455C43.7531 5.46847 43.5961 6.39232 43.053 7.22095C42.4532 8.13451 41.5034 8.72381 40.2087 8.98373C39.1096 9.20504 38.1238 9.08666 37.2563 8.62345C36.3297 8.13193 35.7531 7.38308 35.5292 6.37945L35.4545 6.0552ZM38.9217 2.11276C37.977 2.30319 37.3438 2.80243 37.0221 3.6079C36.7595 4.26927 36.7312 5.05673 36.9346 5.97285C37.1225 6.80921 37.4725 7.46028 37.9848 7.92349C38.5974 8.47934 39.3438 8.6672 40.2267 8.48964C41.0864 8.31722 41.6604 7.78453 41.9487 6.89156C42.1752 6.18645 42.2061 5.4556 42.0362 4.69645C41.856 3.8884 41.5394 3.24763 41.0864 2.77412C40.5047 2.15908 39.7814 1.93777 38.9217 2.11276Z"
    fill="#2E3192"/>
  <path
    d="M12.6309 82.8325L17.0118 78.7176L17.8612 79.6235L16.0877 83.6534L20.1495 82.0553L20.95 82.9071L16.5716 87.022L15.7969 86.1985L19.3232 82.8839L14.3143 84.8655L16.5433 79.8448L12.9629 83.185L12.6309 82.8325Z"
    fill="#2E3192"/>
  <path d="M18.6335 88.8928L17.7583 88.1748L21.5807 83.535L22.4533 84.2556L18.6335 88.8928Z" fill="#2E3192"/>
  <path
    d="M20.098 89.7215L19.6939 89.4332L23.4442 84.6184L24.2808 85.218L24.3348 90.4188L26.9294 87.1172L27.3335 87.4054L23.5832 92.2177L23.1637 91.9191L23.1096 85.8845L20.098 89.7215Z"
    fill="#2E3192"/>
  <path d="M26.0003 93.6999L25.0273 93.1209L28.1058 87.9613L29.0787 88.5403L26.0003 93.6999Z" fill="#2E3192"/>
  <path
    d="M27.6064 93.7849L28.147 93.6871C28.1933 93.9984 28.2808 94.2455 28.407 94.4308C28.5331 94.6161 28.739 94.7679 29.0196 94.8863C29.2873 94.9995 29.5704 95.0124 29.8664 94.9223C30.1624 94.8348 30.3761 94.6521 30.5048 94.3742C30.7081 93.9393 30.6309 93.5095 30.2731 93.0875C29.9179 92.7143 29.5678 92.3438 29.2203 91.9732C28.878 91.4971 28.8394 90.9824 29.0994 90.4291C29.3104 89.9839 29.6631 89.6777 30.1624 89.513C30.6618 89.3483 31.1792 89.3792 31.7171 89.6057C32.08 89.7601 32.3812 89.9917 32.6206 90.3056C32.86 90.6196 32.9835 90.9567 32.9912 91.3195L32.5125 91.3813C32.5048 91.0931 32.4456 90.8486 32.3323 90.6453C32.1959 90.4034 31.9848 90.2233 31.6965 90.1023C31.4031 89.9788 31.1302 89.9737 30.8728 90.0843C30.6154 90.1975 30.4224 90.3905 30.2937 90.6685C30.1315 91.0133 30.2319 91.389 30.5974 91.8008C30.9398 92.1816 31.2873 92.5625 31.6373 92.9408C31.9642 93.4452 31.9977 93.9779 31.73 94.544C31.5009 95.0304 31.1225 95.3495 30.5923 95.5065C30.062 95.6609 29.5395 95.63 29.0273 95.4138C28.6052 95.2362 28.2757 95.0175 28.0415 94.7653C27.8046 94.5131 27.6605 94.1863 27.6064 93.7849Z"
    fill="#2E3192"/>
  <path
    d="M33.802 97.084L32.6669 96.716L34.6077 91.4019L33.4185 91.0159L33.5523 90.6479L37.0813 91.7931L36.9474 92.161L35.7402 91.7699L33.802 97.084Z"
    fill="#2E3192"/>
  <path
    d="M36.9577 98.0773L35.7968 97.7505L37.6527 91.9963L40.3142 92.7452C40.8547 92.897 41.2305 93.1827 41.4467 93.6073C41.6501 94.0062 41.6732 94.4462 41.5188 94.9249C41.3824 95.3443 41.125 95.6274 40.7466 95.7715C40.4146 95.8976 39.9873 95.9208 39.4596 95.8358L40.2267 98.9857L38.95 98.6357L38.2267 95.2182L38.3039 95.2388C38.8367 95.3881 39.2769 95.4061 39.6243 95.2903C40.0027 95.1642 40.2601 94.8914 40.3965 94.4719C40.5149 94.1039 40.5072 93.7823 40.376 93.5069C40.2138 93.1724 39.8715 92.9279 39.3438 92.7812L38.7157 92.6037L36.9577 98.0773Z"
    fill="#2E3192"/>
  <path
    d="M44.5638 95.9748L46.327 93.6973L46.9937 93.7462L44.8212 96.5461L44.6024 99.5981L43.475 99.5184L43.6809 96.6516L41.8663 93.3782L43.1996 93.4735L44.5638 95.9748Z"
    fill="#2E3192"/>
  <path
    d="M50.1571 96.8549C50.1726 97.6038 50.2961 98.2111 50.5278 98.6769C50.8444 99.3099 51.3309 99.6213 51.9872 99.611C52.6436 99.6007 53.1172 99.279 53.4081 98.6434C53.6346 98.1519 53.7401 97.5394 53.7247 96.8034C53.7092 96.0623 53.5831 95.455 53.3437 94.9815C53.022 94.3484 52.5304 94.037 51.874 94.0473C51.2253 94.0576 50.7543 94.3793 50.466 95.0149C50.2421 95.4987 50.1417 96.1138 50.1571 96.8549ZM48.9396 96.8729C48.9216 95.9697 49.1867 95.2105 49.735 94.598C50.2833 93.983 50.9937 93.6716 51.8637 93.6588C52.726 93.6459 53.4518 93.9393 54.0361 94.5414C54.6204 95.141 54.9242 95.8899 54.9422 96.7854C54.9602 97.6758 54.6925 98.4298 54.1365 99.05C53.5806 99.6702 52.8676 99.9867 51.9975 99.9996C51.1327 100.012 50.412 99.7191 49.8354 99.1169C49.2562 98.5173 48.9577 97.7685 48.9396 96.8729Z"
    fill="#2E3192"/>
  <path
    d="M56.9499 99.4927L55.8174 99.5235L55.6423 93.5172L59.0915 93.4169L59.1044 93.8054L56.7852 93.8749L56.8521 96.191L58.9679 96.1292L58.9782 96.5204L56.865 96.5821L56.9499 99.4927Z"
    fill="#2E3192"/>
  <path
    d="M64.1674 98.0284L63.0735 98.3218L61.5188 92.5162L62.6127 92.2228L63.2949 94.7679L65.6758 94.1297L64.9937 91.5846L66.0876 91.2938L67.6449 97.0968L66.551 97.3902L65.8019 94.5955L63.4184 95.2337L64.1674 98.0284Z"
    fill="#2E3192"/>
  <path
    d="M70.3733 95.3392L73.0657 94.14L73.2253 94.4951L69.4956 96.155L67.0529 90.6659L70.7311 89.0292L70.8881 89.3844L68.2446 90.5604L69.1867 92.6783L71.6964 91.5615L71.8534 91.9166L69.3463 93.0334L70.3733 95.3392Z"
    fill="#2E3192"/>
  <path
    d="M75.0683 90.949L73.2587 89.4101L73.5316 91.7673L75.0683 90.949ZM77.7272 91.7648L76.695 92.3129L75.3977 91.2166L73.565 92.1894L73.789 93.8595L73.3051 94.1117L72.5689 87.5084L77.7272 91.7648Z"
    fill="#2E3192"/>
  <path
    d="M81.2897 89.2917L78.3862 91.3221L74.9396 86.3992L75.8663 85.7507L79.0374 90.2773L81.0117 88.8954L81.2897 89.2917Z"
    fill="#2E3192"/>
  <path
    d="M82.8341 87.7194L81.928 88.4476L78.1442 84.1423L77.1893 84.9066L76.9293 84.6081L79.7556 82.3435L80.0181 82.6421L79.0503 83.4166L82.8341 87.7194Z"
    fill="#2E3192"/>
  <path
    d="M85.4698 85.4728L84.6333 86.3374L80.0387 81.9009L80.8727 81.0362L82.8881 82.9792L84.7105 81.0929L82.6951 79.1499L83.5316 78.2827L88.1262 82.7218L87.2922 83.5865L85.0786 81.4506L83.2562 83.3369L85.4698 85.4728Z"
    fill="#2E3192"/>
</svg>
