<svg width="451" height="546" viewBox="0 0 451 546" fill="none" xmlns="http://www.w3.org/2000/svg">
<path d="M390.96 167.06C375.524 178.564 357.261 185.676 338.11 187.64C337.985 187.645 337.863 187.604 337.767 187.525C337.67 187.446 337.606 187.334 337.586 187.211C337.567 187.088 337.593 186.962 337.66 186.856C337.727 186.751 337.83 186.674 337.95 186.64C341.961 185.728 345.906 184.548 349.76 183.11C367.84 176.386 383.433 164.296 394.448 148.46C405.463 132.624 411.375 113.8 411.39 94.51C411.39 43.51 370.31 1.31001 319.31 0.0300114C294.438 -0.60547 270.319 8.5933 252.187 25.63C234.055 42.6667 223.373 66.1667 222.46 91.03C222.41 92.18 222.39 93.34 222.39 94.51H220.92C184.093 95.1589 147.994 104.879 115.82 122.81C89.0276 137.727 65.5513 157.941 46.82 182.22C46.1893 183.023 45.7741 183.974 45.6137 184.983C45.4533 185.992 45.5531 187.025 45.9036 187.984C46.2541 188.944 46.8437 189.798 47.6166 190.465C48.3894 191.133 49.32 191.592 50.32 191.8C104.47 203.74 142.45 237.04 155.66 286.43C154.663 286.332 153.662 286.286 152.66 286.29C130.57 286.29 113.52 307.89 121.48 331.13C123.436 336.713 126.902 341.644 131.492 345.375C136.081 349.107 141.616 351.494 147.48 352.27C150.328 352.682 153.217 352.743 156.08 352.45V443.14C156.078 444.445 155.791 445.734 155.238 446.916C154.684 448.098 153.879 449.144 152.879 449.982C151.878 450.82 150.706 451.428 149.445 451.765C148.184 452.101 146.865 452.158 145.58 451.93C109.107 445.528 75.6932 427.473 50.3503 400.474C25.0075 373.474 9.10207 338.985 5.02001 302.18C5.02001 302.18 5.02001 302.18 5.02001 302.12V301.94C4.93387 301.421 4.66214 300.951 4.25536 300.617C3.84859 300.284 3.33448 300.109 2.80869 300.126C2.28289 300.144 1.78122 300.351 1.39701 300.711C1.0128 301.07 0.772211 301.557 0.720009 302.08C0.273342 307.907 0.0466753 313.79 0.0400087 319.73C0.0379394 379.151 23.5134 436.166 65.354 478.359C107.195 520.552 164.011 544.504 223.43 545C346.35 546 447.98 447.4 450.53 324.5C451.838 266.281 430.479 209.831 390.96 167.06ZM183.07 207.91C175.602 208.396 168.162 206.595 161.744 202.745C155.326 198.895 150.233 193.18 147.146 186.363C144.058 179.545 143.123 171.948 144.463 164.584C145.804 157.221 149.357 150.441 154.649 145.149C159.941 139.857 166.721 136.304 174.084 134.963C181.448 133.623 189.045 134.558 195.863 137.646C202.68 140.733 208.395 145.826 212.245 152.244C216.095 158.662 217.896 166.102 217.41 173.57C216.829 182.487 213.025 190.888 206.706 197.206C200.388 203.525 191.987 207.329 183.07 207.91ZM201.91 171.17C201.912 175.357 200.673 179.451 198.349 182.934C196.025 186.418 192.721 189.134 188.854 190.74C184.987 192.346 180.73 192.77 176.622 191.958C172.515 191.146 168.74 189.134 165.775 186.178C162.81 183.221 160.788 179.452 159.964 175.346C159.14 171.241 159.552 166.983 161.147 163.112C162.742 159.24 165.449 155.928 168.926 153.594C172.402 151.261 176.493 150.01 180.68 150C183.464 149.995 186.223 150.538 188.797 151.6C191.371 152.661 193.711 154.219 195.682 156.185C197.654 158.151 199.219 160.487 200.287 163.058C201.356 165.629 201.907 168.386 201.91 171.17Z" fill="#939598"/>
</svg>
