<?xml version="1.0" encoding="utf-8"?>
<!-- Generator: Adobe Illustrator 25.0.0, SVG Export Plug-In . SVG Version: 6.00 Build 0)  -->
<svg version="1.1" id="Layer_1" xmlns="http://www.w3.org/2000/svg" xmlns:xlink="http://www.w3.org/1999/xlink" x="0px" y="0px"
	 viewBox="0 0 150 30.2" style="enable-background:new 0 0 150 30.2;" xml:space="preserve">
<style type="text/css">
	.st0{fill:#4DBC93;}
	.st1{fill:#EAEAE9;}
	.st2{fill:#68C29B;}
	.st3{fill:#028577;}
	.st4{fill:#003A32;}
</style>
<g>
	<g>
		<path class="st0" d="M39.5,10.2h2.4l4.5,8.1l4.4-8.1h2.4v13.7h-2.6v-8.7l-2.9,5.2c-0.2,0.4-0.4,0.6-0.6,0.8
			c-0.2,0.2-0.4,0.2-0.7,0.2h-0.7l-3.5-6.2v8.7h-2.6V10.2z"/>
		<path class="st0" d="M55.6,23.4c-0.4-0.3-0.5-0.8-0.5-1.3V10.2h10.5v2.3h-7.8v3.2h7.2v2.3h-7.2v3.5h7.8v2.3h-8.6
			C56.4,23.9,55.9,23.7,55.6,23.4z"/>
		<path class="st0" d="M67.8,23.4c-0.4-0.3-0.5-0.8-0.5-1.3V10.2h6.5c1,0,2,0.2,2.8,0.6c0.8,0.4,1.4,0.9,1.8,1.7
			c0.4,0.7,0.7,1.5,0.7,2.5v3.8c0,1.7-0.4,3-1.3,3.8c-0.9,0.9-2.2,1.3-3.9,1.3h-4.7C68.7,23.9,68.2,23.7,67.8,23.4z M73.9,21.5
			c0.8,0,1.5-0.2,1.9-0.7c0.4-0.5,0.6-1.2,0.6-2.1v-3.6c0-0.7-0.2-1.3-0.7-1.8c-0.5-0.5-1.1-0.7-1.9-0.7H70v8.9H73.9z"/>
		<path class="st0" d="M84.3,18.6l-5.1-8.4h2.9l3.5,5.9l3.5-5.9h2.9L87,18.6v5.3h-2.7V18.6z"/>
		<path class="st1" d="M94.7,23.4c-0.8-0.4-1.4-1-1.8-1.8c-0.4-0.8-0.6-1.7-0.6-2.7v-3.6c0-1,0.2-1.9,0.6-2.7c0.4-0.8,1-1.4,1.8-1.8
			c0.8-0.4,1.7-0.6,2.7-0.6h2.1c1,0,1.8,0.2,2.6,0.6c0.7,0.4,1.3,1,1.7,1.8c0.4,0.8,0.6,1.6,0.6,2.6h-2.7c0-0.8-0.2-1.4-0.6-1.9
			c-0.4-0.5-1-0.7-1.6-0.7h-2.1c-0.7,0-1.3,0.3-1.8,0.8c-0.4,0.5-0.7,1.3-0.7,2.1v3.4c0,0.9,0.2,1.6,0.6,2.1c0.4,0.5,1,0.8,1.7,0.8
			h2.1c0.7,0,1.3-0.3,1.7-0.8c0.4-0.5,0.7-1.2,0.7-2.1h2.7c0,1.1-0.2,2-0.6,2.8c-0.4,0.8-1,1.4-1.8,1.9c-0.8,0.4-1.6,0.7-2.6,0.7
			h-2.1C96.3,24.1,95.4,23.9,94.7,23.4z"/>
		<path class="st1" d="M105.9,10.2h2.7v5.7h6.4v-5.7h2.7v13.7H115v-5.7h-6.4v5.7h-2.7V10.2z"/>
		<path class="st1" d="M128.3,20.7h-5.1l-1.2,3.2h-2.8l5.4-13.7h1.2c0.8,0,1.4,0.4,1.7,1.2l4.9,12.5h-2.8L128.3,20.7z M123.9,18.5
			h3.7l-1.8-4.9h0L123.9,18.5z"/>
		<path class="st1" d="M133.8,10.2h2.7v13.7h-2.7V10.2z"/>
		<path class="st1" d="M138.4,10.2h2.4l6.6,9.3v-9.3h2.6v13.7h-2.4l-6.6-9.3v9.3h-2.6V10.2z"/>
	</g>
	<g>
		<polygon class="st0" points="0,0.4 0,23.9 7.7,29.8 7.7,18.2 15.5,24.2 15.5,12.2 		"/>
		<polygon class="st2" points="15.5,12.2 15.5,5.1 9.3,0.4 0,0.4 		"/>
		<polygon class="st3" points="7.7,18.2 7.7,29.8 15.5,24.2 		"/>
		<polygon class="st3" points="31,0.4 31,23.9 23.3,29.8 23.3,18.2 15.5,24.2 15.5,12.2 		"/>
		<polygon class="st2" points="15.5,12.2 15.5,5.1 21.7,0.4 31,0.4 		"/>
		<polygon class="st4" points="23.3,18.2 23.3,29.8 15.5,24.2 		"/>
	</g>
</g>
<g>
</g>
<g>
</g>
<g>
</g>
<g>
</g>
<g>
</g>
<g>
</g>
</svg>
